<svg xmlns="http://www.w3.org/2000/svg" viewBox="0 0 128 128" width="128" height="128">
  <linearGradient id="py-blue" x1="0%" y1="0%" x2="100%" y2="100%">
    <stop offset="0%" stop-color="#3776AB" />
    <stop offset="100%" stop-color="#4B8BBE" />
  </linearGradient>
  <linearGradient id="py-yellow" x1="0%" y1="0%" x2="100%" y2="100%">
    <stop offset="0%" stop-color="#FFD43B" />
    <stop offset="100%" stop-color="#FFE873" />
  </linearGradient>
  <path fill="url(#py-blue)" d="M63.04 7.04c-15.54 0-14.54 6.74-14.54 6.74l.02 6.98h14.82v2.1H22.78s-9.92 1.13-9.92 14.52c0 13.39 8.66 14.07 8.66 14.07h5.18v-7.3c0-8.31 7.23-7.85 7.23-7.85h14.73s7.05.15 7.05-6.84V14.18s1.42-7.14-12.67-7.14zm-7.66 4.41c1.24 0 2.25 1.01 2.25 2.25s-1.01 2.25-2.25 2.25-2.25-1.01-2.25-2.25 1.01-2.25 2.25-2.25z" transform="scale(1.8) translate(-4, -1)" />
  <path fill="url(#py-yellow)" d="M64.96 120.96c15.54 0 14.54-6.74 14.54-6.74l-.02-6.98H64.66v-2.1h40.56s9.92-1.13 9.92-14.52c0-13.39-8.66-14.07-8.66-14.07h-5.18v7.3c0 8.31-7.23 7.85-7.23 7.85H79.34s-7.05-.15-7.05 6.84v15.31s-1.42 7.14 12.67 7.14zm7.66-4.41c-1.24 0-2.25-1.01-2.25-2.25s1.01-2.25 2.25-2.25 2.25 1.01 2.25 2.25-1.01 2.25-2.25 2.25z" transform="scale(1.8) translate(-16, -18)" />
</svg>
